<?xml version="1.0" encoding="utf-8"?>
<!-- Generator: Adobe Illustrator 23.0.3, SVG Export Plug-In . SVG Version: 6.00 Build 0)  -->
<svg version="1.1" id="Layer_1" xmlns="http://www.w3.org/2000/svg" xmlns:xlink="http://www.w3.org/1999/xlink" x="0px" y="0px"
	 viewBox="0 0 64 64" style="enable-background:new 0 0 64 64;" xml:space="preserve">
<style type="text/css">
	.st0{fill:url(#SVGID_1_);}
	.st1{fill:#FFFFFF;}
</style>
<linearGradient id="SVGID_1_" gradientUnits="userSpaceOnUse" x1="60.997" y1="62.7142" x2="8.6566" y2="10.8844" gradientTransform="matrix(1 0 0 -1 0 66)">
	<stop  offset="5.609727e-03" style="stop-color:#2C3E81"/>
	<stop  offset="1" style="stop-color:#30333A"/>
</linearGradient>
<path class="st0" d="M54.4,64H9.6C4.4,64,0,59.6,0,54.4V9.6C0,4.4,4.4,0,9.6,0h44.8C59.6,0,64,4.4,64,9.6v44.8
	C64,59.6,59.6,64,54.4,64z"/>
<g>
	<path class="st1" d="M32,10.9c-11.6,0-21.1,9.5-21.1,21.1S20.4,53.1,32,53.1S53.1,43.6,53.1,32S43.6,10.9,32,10.9z M32,50.8
		c-10.3,0-18.8-8.4-18.8-18.8S21.7,13.2,32,13.2S50.8,21.7,50.8,32S42.3,50.8,32,50.8z"/>
	<path class="st1" d="M32,53.4c-11.8,0-21.4-9.6-21.4-21.4S20.2,10.6,32,10.6S53.4,20.2,53.4,32S43.8,53.4,32,53.4z M32,11.1
		c-11.5,0-20.9,9.4-20.9,20.9S20.5,52.9,32,52.9S52.9,43.5,52.9,32S43.5,11.1,32,11.1z M32,51c-10.5,0-19-8.5-19-19s8.5-19,19-19
		s19,8.5,19,19S42.5,51,32,51z M32,13.5c-10.2,0-18.5,8.3-18.5,18.5S21.8,50.5,32,50.5S50.5,42.2,50.5,32S42.2,13.5,32,13.5z"/>
</g>
<g>
	<path class="st1" d="M37.9,37.3c0.8,0.6,1.7,1.3,2.5,1.9l0.2,0.2c0,0,0,0.2,0.2,0.2h-0.2c-0.4-0.2-0.6-0.4-1.1-0.6
		c-0.6-0.4-1.3-0.6-1.7-1.1c-0.6-0.4-0.6-0.2-1.1,0.2c0.4,0.4,1.1,1.1,1.5,1.5c0.2,0.2,0.4,0.6,0.6,1.1v0.2h-0.2
		c-0.6-0.6-1.3-1.3-1.7-1.9c-0.2-0.2-0.4-0.4-0.6-0.6C36.2,38.5,36,38.8,36,39c0.2,0.2,0.4,0.4,0.6,0.6c0.6,0.8,1.3,1.7,1.7,2.5v0.2
		c0,0-0.2,0-0.2-0.2c-0.6-0.8-1.1-1.5-1.7-2.3c-0.2-0.2-0.4-0.4-0.6-0.6c-0.4,0.6-1.1,1.1-1.5,1.7c-0.4,0.4-0.8,0.6-1.3,0.6
		c-0.6,0-1.5,0-2.1-0.2c-0.4,0-0.6-0.2-0.8-0.4c-0.4-0.4-0.8-1.1-1.3-1.5c-0.2,0.2-0.4,0.6-0.6,0.8c-0.4,0.6-0.8,1.5-1.5,2.1
		l-0.2,0.2c0-0.2,0-0.2,0-0.4c0.4-1.3,1.3-2.3,2.1-3.2c-0.2-0.2-0.4-0.4-0.6-0.6c-0.6,0.6-1.1,1.1-1.7,1.7c-0.2,0.2-0.4,0.4-0.6,0.6
		h-0.2v-0.2c0.6-0.8,1.3-1.5,1.9-2.3l0.2-0.2c-0.4-0.4-0.6-0.4-1.1-0.2c-0.8,0.6-1.7,1.1-2.7,1.7l-0.2,0.2h-0.2v-0.2l0.2-0.2
		c0.8-0.6,1.5-1.1,2.3-1.7l0.2-0.2c-0.6-0.2-1.3-0.4-1.9-0.6c-0.6-0.2-0.8-0.6-1.1-1.1c-0.4-1.5-0.6-3.2-0.8-4.6
		c0-0.6,0.2-1.1,0.4-1.5c0-0.2,0.2-0.4,0-0.6c-0.2-0.4-0.4-0.8-0.6-1.3c-0.4-0.8-0.8-1.5-1.5-2.3c-0.4-0.6-0.2-1.3,0.2-1.9
		c0.4-0.6,0.8-1.1,1.3-1.3c0.2-0.2,0.6-0.2,1.1-0.2c1.1,0.4,1.9,0.8,3,1.3c0.2,0,0.4,0,0.6,0c1.5-0.4,3.2-0.6,4.6-1.1
		c0.6-0.2,1.5,0,2.1,0.2c1.1,0.2,2.1,0.4,3.2,0.8c0.2,0,0.2,0,0.4,0c0.8-0.4,1.7-0.6,2.5-1.1c0.8-0.4,1.7-0.2,2.3,0.6
		c1.1,1.5,1.1,1.5,0.4,3c-0.4,0.6-0.8,1.3-1.3,1.9c-0.2,0.2-0.2,0.4-0.4,0.6c-0.2,0.4-0.4,0.8,0,1.5c0.4,0.6,0.4,1.5,0.2,2.1
		c-0.2,1.3-0.4,2.5-0.8,3.8c-0.2,0.6-0.6,1.1-1.3,1.3C38.8,36.9,38.3,37.1,37.9,37.3z M35.8,33.7c0.6,0.6,1.1,1.5,1.5,2.3
		c0,0.2,0.2,0.2,0.4,0.2c0.4-0.2,1.1-0.2,1.5-0.4c0.2,0,0.4-0.2,0.4-0.4c0.2-1.3,0.4-2.3,0.6-3.6c0.2-0.8,0-1.5-0.4-2.1
		c-0.2-0.4-0.6-1.1-0.8-1.7c-0.6-1.1-1.3-2.3-1.9-3.4c-0.2-0.2-0.4-0.4-0.6-0.4c-1.1-0.2-2.1-0.4-3.2-0.6c-0.6-0.2-1.1-0.2-1.7-0.2
		c-1.3,0.2-2.5,0.6-4,0.8c-0.4,0-0.8,0.2-1.1,0.6c-0.8,1.7-1.9,3.4-2.7,5.1c-0.2,0.4-0.4,1.1-0.2,1.5c0,0.4,0,0.6,0.2,1.1
		c0.2,1.1,0.4,1.9,0.6,3c0,0.2,0.2,0.2,0.2,0.4c0.6,0.2,1.1,0.2,1.7,0.4c0.2,0,0.4,0,0.4-0.2c0.4-0.6,0.8-1.5,1.3-2.1l0,0
		c0,0.4-0.2,0.8-0.2,1.3c0,0.4-0.2,0.8,0,1.5c0,0.2,0.2,0.2,0.4,0.2c0.6-0.2,1.3-0.4,1.9-0.6h0.2l-0.2,0.2h-0.2
		c-0.6,0.2-1.1,0.4-1.7,0.6c0.2,0.2,0.2,0.2,0.2,0.4c0.2,0,0.2-0.2,0.4-0.2c0.4-0.2,0.8-0.2,1.1-0.4h0.2l-0.2,0.2h-0.2
		c-0.4,0.2-0.8,0.2-1.3,0.4c0.2,0.2,0.2,0.4,0.4,0.6c0.4-0.2,0.8-0.4,1.1-0.4h0.2c0,0,0,0.2-0.2,0.2c-0.4,0.2-0.6,0.4-1.1,0.6
		c0.2,0.4,0.4,0.6,0.6,1.1c0.4-0.4,1.1-0.6,1.5-1.1c0,0,0.2-0.2,0.2-0.4c0-0.4,0-0.8,0-1.3c0-0.2,0-0.4-0.2-0.4
		c-0.4-0.6-0.8-1.1-1.3-1.5c0-0.2-0.2-0.4,0-0.4c0,0,0.2-0.2,0.4-0.2c1.1,0,2.1,0,3.2,0c0.2,0,0.4,0.2,0.4,0.2c0,0.2,0,0.4,0,0.4
		c-0.2,0.2-0.4,0.6-0.6,0.6c-0.8,0.6-1.1,1.5-0.8,2.5l0,0c0,0,0,0.2,0.2,0.2c0.4,0.4,1.1,0.6,1.5,1.1c0.2-0.4,0.4-0.6,0.6-1.1
		c-0.4-0.2-0.6-0.4-1.1-0.4l-0.2-0.2h0.2c0.4,0.2,0.6,0.2,1.1,0.4c0.2-0.2,0.2-0.4,0.4-0.6c0,0-0.2,0-0.2-0.2
		c-0.4-0.2-0.8-0.2-1.3-0.4l-0.2-0.2h0.2h0.2c0.4,0.2,0.8,0.2,1.3,0.4c0,0,0.2-0.2,0.2-0.4c-0.6-0.2-1.3-0.4-1.9-0.6l-0.2-0.2
		c0,0,0.2,0,0.2-0.2h0.2c0.6,0.2,1.3,0.4,1.9,0.6c0-0.2,0.2-0.6,0.2-0.8C36,35,36,34.3,35.8,33.7z M25.9,24
		c-0.8-0.4-1.9-0.8-2.7-1.1c0,0-0.2,0-0.2,0.2c-0.4,0.4-0.6,0.8-1.1,1.3c0,0,0,0.2,0,0.4c0.2,0.4,0.4,0.6,0.6,1.1
		c0.4,0.4,0.8,0.8,1.3,1.1c0.2,0,0.4,0,0.6-0.2C25,25.7,25.5,24.8,25.9,24z M38.1,24c0.4,0.8,0.8,1.5,1.3,2.3
		c0.2,0.4,0.4,0.4,0.8,0.2c0.2,0,0.2-0.2,0.4-0.2c0.8-0.4,1.1-1.3,1.5-1.9v-0.2c-0.4-0.4-0.6-0.8-1.1-1.3c0,0-0.2-0.2-0.2,0
		C39.8,23.1,39,23.6,38.1,24z M32,38.5c-0.4,0.4-0.8,0.8-1.5,1.3c0.4,0.6,2.3,0.6,2.7,0C32.8,39.4,32.4,39,32,38.5z"/>
	<path class="st1" d="M29.3,30.3c-0.2,0-0.4,0.2-0.6,0.2c-0.2,0-0.4-0.2-0.4-0.4c-0.8-0.2-1.5-0.2-2.1-0.4c0,0,0,0,0-0.2
		c0.4,0,0.8,0,1.3,0c1.1,0,1.9,0,3,0c0.4,0,0.4,0,0.4,0.4c0,0.6-0.2,1.3-0.2,1.9c0,0.4-0.2,1.1-0.2,1.5c-0.4,0-0.4,0-0.6-0.4
		c0-0.2,0-0.2,0-0.4c0-0.4,0.2-0.6,0.2-1.1C30.1,30.7,29.9,30.3,29.3,30.3L29.3,30.3z"/>
	<path class="st1" d="M33.7,33.3c-0.2-0.6-0.2-1.3-0.4-1.9c0-0.4,0-0.8,0-1.5c0-0.2,0-0.4,0.2-0.4c1.5,0,3,0,4.4,0.2l0,0
		c-0.6,0.2-1.5,0.2-2.1,0.4v0.2c-0.2,0.2-0.2,0.2-0.4,0.4c-0.2,0-0.2-0.2-0.4-0.2l-0.2-0.2c-0.4,0-0.8,0.4-0.6,1.1
		c0,0.4,0.2,0.8,0.4,1.1c0,0.2,0,0.2,0,0.4C34.3,33.3,34.1,33.3,33.7,33.3z"/>
	<path class="st1" d="M28.4,25.2c0,0.2-0.2,0.4-0.4,0.6c-0.2,0.2-0.6,0.2-1.1,0c-0.2-0.4-0.2-0.8,0-1.3c0.2-0.4,0.8-0.4,1.1,0
		C28.4,24.8,28.4,25,28.4,25.2z"/>
	<path class="st1" d="M26.9,27.6c-0.4,0-0.6-0.2-0.6-0.6s0.2-0.6,0.6-0.6s0.6,0.2,0.6,0.6C27.4,27.4,27.1,27.6,26.9,27.6z"/>
	<path class="st1" d="M38.3,34.5c0-0.4,0.2-0.6,0.6-0.6c0.4,0,0.6,0.2,0.6,0.6s-0.2,0.6-0.6,0.6C38.5,35,38.1,34.7,38.3,34.5z"/>
	<path class="st1" d="M30.3,24.8c-0.2,0.2-0.2,0.6-0.4,0.8c-0.2,0.2-0.4,0.2-0.4-0.2c-0.2-0.2,0-0.8,0.4-1.1h0.2
		C30.3,24.4,30.3,24.6,30.3,24.8z"/>
	<path class="st1" d="M39.2,32.6c0,0.2-0.2,0.4-0.2,0.6l-0.2,0.2l-0.2-0.2c0-0.2,0-0.6,0.2-0.8c0,0,0.2-0.2,0.4-0.2
		c0,0,0.2,0.2,0.2,0.4C39.2,32.4,39.2,32.4,39.2,32.6L39.2,32.6z"/>
	<path class="st1" d="M28.8,27.6c-0.2,0-0.4-0.2-0.4-0.4c0-0.2,0.2-0.4,0.4-0.4s0.4,0.2,0.4,0.4C29.3,27.6,29,27.6,28.8,27.6z"/>
	<path class="st1" d="M37.7,34.1c-0.2,0-0.4-0.2-0.4-0.4s0.2-0.4,0.4-0.4s0.4,0.2,0.4,0.4C38.1,34.1,37.9,34.1,37.7,34.1z"/>
</g>
</svg>
