<!DOCTYPE svg PUBLIC "-//W3C//DTD SVG 1.1//EN" "http://www.w3.org/Graphics/SVG/1.1/DTD/svg11.dtd">
<!-- Uploaded to: SVG Repo, www.svgrepo.com, Transformed by: SVG Repo Mixer Tools -->
<svg width="32px" height="32px" viewBox="-0.42 -0.42 14.84 14.84" role="img" focusable="false" aria-hidden="true" xmlns="http://www.w3.org/2000/svg" fill="#000000" stroke="#000000" stroke-width="0.11200000000000002">
<g id="SVGRepo_bgCarrier" stroke-width="0"/>
<g id="SVGRepo_tracerCarrier" stroke-linecap="round" stroke-linejoin="round"/>
<g id="SVGRepo_iconCarrier"> <path fill="#b3b3b3" d="M12.99999994 11.66666662c0 .73633333-.597 1.33333332-1.33333332 1.33333332H2.33333338c-.73633333 0-1.33333332-.597-1.33333332-1.33333332V2.33333338c0-.73633333.597-1.33333332 1.33333332-1.33333332h9.33333324c.73633333 0 1.33333332.597 1.33333332 1.33333332v9.33333324z"/> <g fill="#455a64"> <path d="M2.66666671 3.33333337h8.66666658v5.33333328H2.66666671z"/> <path d="M4.00000003 7.33333333h5.99999994v2.33333331H4.00000003z"/> <path d="M5.33333335 8.66666665h3.3333333v1.99999998h-3.3333333z"/> </g> <path fill="#fdd835" d="M3.6666667 4.00000003h.66666666v2.33333331H3.6666667zm.99999999 0h.66666666v2.33333331h-.66666666zm.99999999 0h.66666666v2.33333331h-.66666666zm.99999999 0h.66666666v2.33333331h-.66666666zm.99999999 0h.66666666v2.33333331h-.66666666zm.99999999 0h.66666666v2.33333331h-.66666666zm.99999999 0h.66666666v2.33333331h-.66666666z"/> </g>
</svg>